<svg width="581" height="581" viewBox="0 0 581 581" fill="none" xmlns="http://www.w3.org/2000/svg">
<rect x="0.28125" y="0.42041" width="579.746" height="579.746" rx="127" fill="black"/>
<path d="M281.589 112.643C291.026 112.643 298.677 120.294 298.677 129.731V162.756H370.809V434.58H98.9863V162.756H171.117V129.731C171.117 120.294 178.768 112.643 188.206 112.643H281.589ZM123.033 284.736V312.078H191.388V284.736H123.033ZM123.033 245.774V273.116H191.388V245.774H123.033ZM123.033 206.812V234.154H191.388V206.812H123.033Z" fill="white"/>
<path d="M369.731 434.775L349.287 416.164C276.676 350.32 228.738 306.754 228.738 253.599C228.738 210.032 262.859 176.053 306.284 176.053C330.817 176.053 354.363 187.474 369.731 205.38C385.099 187.474 408.645 176.053 433.178 176.053C476.604 176.053 510.724 210.032 510.724 253.599C510.724 306.754 462.786 350.32 390.175 416.164L369.731 434.775Z" fill="#FF0000" fill-opacity="0.66"/>
</svg>
