<svg width="580" height="580" viewBox="0 0 580 580" fill="none" xmlns="http://www.w3.org/2000/svg">
<rect x="0.21875" y="0.102539" width="579.746" height="579.746" rx="127" fill="white"/>
<path d="M281.526 112.325C290.964 112.325 298.614 119.976 298.614 129.414V162.438H370.746V434.262H98.9238V162.438H171.055V129.414C171.055 119.976 178.706 112.325 188.144 112.325H281.526ZM122.971 284.418V311.76H191.325V284.418H122.971ZM122.971 245.457V272.798H191.325V245.457H122.971ZM122.971 206.495V233.836H191.325V206.495H122.971Z" fill="black"/>
<path d="M369.669 434.457L349.225 415.846C276.613 350.003 228.676 306.436 228.676 253.281C228.676 209.715 262.796 175.735 306.222 175.735C330.755 175.735 354.3 187.156 369.669 205.062C385.037 187.156 408.583 175.735 433.115 175.735C476.541 175.735 510.661 209.715 510.661 253.281C510.661 306.436 462.724 350.003 390.113 415.846L369.669 434.457Z" fill="#FF0000" fill-opacity="0.66"/>
</svg>
